/* XPM */
static char *_4e93fbfb1314479bfa9245823348a80ZA1ySnatk5ZAFfAj[] = {
/* columns rows colors chars-per-pixel */
"64 64 256 2 ",
"   c black",
".  c #1F170B",
"X  c #170F07",
"o  c #4B4B4B",
"O  c white",
"+  c #1B1B1B",
"@  c #131313",
"#  c #0B0B0B",
"$  c #070707",
"%  c #2F371F",
"&  c #232B0F",
"*  c #171F07",
"=  c #0F1700",
"-  c #4F3B2B",
";  c #473323",
":  c #3F2B1B",
">  c #FFB7B7",
",  c #F7ABAB",
"<  c #F3A3A3",
"1  c #EB9797",
"2  c #E78F8F",
"3  c #DF8787",
"4  c #DB7B7B",
"5  c #D37373",
"6  c #CB6B6B",
"7  c #C76363",
"8  c #BF5B5B",
"9  c #BB5757",
"0  c #B34F4F",
"q  c #AF4747",
"w  c #A73F3F",
"e  c #A33B3B",
"r  c #9B3333",
"t  c #972F2F",
"y  c #8F2B2B",
"u  c #8B2323",
"i  c #831F1F",
"p  c #7F1B1B",
"a  c #771717",
"s  c #731313",
"d  c #6B0F0F",
"f  c #670B0B",
"g  c #5F0707",
"h  c #5B0707",
"j  c #530707",
"k  c #4F0000",
"l  c #470000",
"z  c #430000",
"x  c #FFEBDF",
"c  c #FFE3D3",
"v  c #FFDBC7",
"b  c #FFD3BB",
"n  c #FFCFB3",
"m  c #FFC7A7",
"M  c #FFBF9B",
"N  c #FFBB93",
"B  c #FFB383",
"V  c #F7AB7B",
"C  c #EFA373",
"Z  c #E79B6B",
"A  c #DF9363",
"S  c #D78B5B",
"D  c #CF8353",
"F  c #CB7F4F",
"G  c #BF7B4B",
"H  c #B37347",
"J  c #AB6F43",
"K  c #A36B3F",
"L  c #9B633B",
"P  c #8F5F37",
"I  c #875733",
"U  c #7F532F",
"Y  c #774F2B",
"T  c #6B4727",
"R  c #5F4323",
"E  c #533F1F",
"W  c #4B371B",
"Q  c #3F2F17",
"!  c #332B13",
"~  c #2B230F",
"^  c #EFEFEF",
"/  c #E7E7E7",
"(  c #DFDFDF",
")  c gray86",
"_  c LightGray",
"`  c #CBCBCB",
"'  c gray78",
"]  c gray75",
"[  c #B7B7B7",
"{  c gray70",
"}  c gray67",
"|  c #A7A7A7",
" . c #9F9F9F",
".. c #979797",
"X. c #939393",
"o. c #8B8B8B",
"O. c #838383",
"+. c gray50",
"@. c #777777",
"#. c #6F6F6F",
"$. c gray42",
"%. c gray39",
"&. c #5B5B5B",
"*. c gray34",
"=. c gray31",
"-. c gray28",
";. c #434343",
":. c gray23",
">. c #373737",
",. c #2F2F2F",
"<. c #272727",
"1. c #232323",
"2. c #77FF6F",
"3. c #6FEF67",
"4. c #67DF5F",
"5. c #5FCF57",
"6. c #5BBF4F",
"7. c #53AF47",
"8. c #4B9F3F",
"9. c #439337",
"0. c #3F832F",
"q. c #37732B",
"w. c #2F6323",
"e. c #27531B",
"r. c #1F4317",
"t. c #17330F",
"y. c #13230B",
"u. c #0B1707",
"i. c #BFA78F",
"p. c #B79F87",
"a. c #AF977F",
"s. c #A78F77",
"d. c #9F876F",
"f. c #9B7F6B",
"g. c #937B63",
"h. c #8B735B",
"j. c #836B57",
"k. c #7B634F",
"l. c #775F4B",
"z. c #6F5743",
"x. c #67533F",
"c. c #5F4B37",
"v. c #574333",
"b. c #533F2F",
"n. c #9F8363",
"m. c #8F7753",
"M. c #836B4B",
"N. c #775F3F",
"B. c #675333",
"V. c #5B472B",
"C. c #4F3B23",
"Z. c #43331B",
"A. c #7B7F63",
"S. c #6F7357",
"D. c #676B4F",
"F. c #5B6347",
"G. c #53573B",
"H. c #474F33",
"J. c #3F472B",
"K. c #373F27",
"L. c #FFFF73",
"P. c #EBDB57",
"I. c #D7BB43",
"U. c #C39B2F",
"Y. c #AF7B1F",
"T. c #9B5B13",
"R. c #874307",
"E. c #732B00",
"W. c white",
"Q. c #FFDBDB",
"!. c #FFBBBB",
"~. c #FF9B9B",
"^. c #FF7B7B",
"/. c #FF5F5F",
"(. c #FF3F3F",
"). c #FF1F1F",
"_. c red",
"`. c #EF0000",
"'. c #E30000",
"]. c #D70000",
"[. c #CB0000",
"{. c #BF0000",
"}. c #B30000",
"|. c #A70000",
" X c #9B0000",
".X c #8B0000",
"XX c #7F0000",
"oX c #730000",
"OX c #670000",
"+X c #5B0000",
"@X c #4F0000",
"#X c #430000",
"$X c #E7E7FF",
"%X c #C7C7FF",
"&X c #ABABFF",
"*X c #8F8FFF",
"=X c #7373FF",
"-X c #5353FF",
";X c #3737FF",
":X c #1B1BFF",
">X c blue",
",X c #0000E3",
"<X c #0000CB",
"1X c #0000B3",
"2X c #00009B",
"3X c #000083",
"4X c #00006B",
"5X c #000053",
"6X c white",
"7X c #FFEBDB",
"8X c #FFD7BB",
"9X c #FFC79B",
"0X c #FFB37B",
"qX c #FFA35B",
"wX c #FF8F3B",
"eX c #FF7F1B",
"rX c #F37317",
"tX c #EB6F0F",
"yX c #DF670F",
"uX c #D75F0B",
"iX c #CB5707",
"pX c #C34F00",
"aX c #B74700",
"sX c #AF4300",
"dX c white",
"fX c #FFFFD7",
"gX c #FFFFB3",
"hX c #FFFF8F",
"jX c #FFFF6B",
"kX c #FFFF47",
"lX c #FFFF23",
"zX c yellow",
"xX c #A73F00",
"cX c #9F3700",
"vX c #932F00",
"bX c #872300",
"nX c #4F3B27",
"mX c #432F1B",
"MX c #372313",
"NX c #2F1B0B",
"BX c #000053",
"VX c #000047",
"CX c #00003B",
"ZX c #00002F",
"AX c #000023",
"SX c #000017",
"DX c #00000B",
"FX c cyan",
"GX c #FF9F43",
"HX c #FFE74B",
"JX c #FF7BFF",
"KX c magenta",
"LX c #CF00CF",
"PX c #9F009B",
"IX c #6F006B",
"UX c #A76B6B",
/* pixels */
"*.*.M M M M M M M M F I ;.*.M M M M M M M M M M M M M M M G L ,.*.qXqXqXqXqXS S S S S G G G U E ,.*.B N N N N N B B B C D P >.;.",
"*.*.M b n m m m m N G I ;.*.M m N N N B B B B B B B B B C F L ;.*.A B B C A A A S S S S D G L Y ;.&.B N N N N N B B B C D P >.;.",
"*.*.M m M N N N N C F I ;.&.M m N B B C C C C C C C C C A G L ;.*.H C C A S D F G H H K K L P Y ;.&.C B B C C C C C C A G P >.;.",
"*.*.M m B B B B B A G I ;.&.M m B C C A A A qXqXqXqXqXqXA G L ;.*.K G D H K L L L L P P P I Y R o &.A C A A A A A A A S H I >.;.",
"*.*.M N B C C C C A H U ;.&.M m B C C qXA A A qXqXqXqXqXA F L ;.o o *.*.o ;.;.;.;.;.;.;.;.;.;.;.*.&.S A A S S S S S S F K U >.;.",
"*.*.B B C qXqXqXqXS K Y ;.&.M M B qXqXqXqXqXA A A A qXqXA F L ;.o *.%.#.#.#.%.%.%.&.&.&.*.*.*.*.*.&.D A S D D D D D D G L Y >.;.",
"*.*.C B A A A A A D K Y ;.*.M m B qXqXqXqXqXqXA A A A qXA G L ;.*.H A C M M N N N B C qXA S G K I &.G S D D F F F F F H L Y >.;.",
"*.*.C C A A S A S F L Y ;.&.M M B qXqXqXqXC C qXA A A A A G L ;.%.A B M M M N M M M m M B C A G L &.H D F G G G G G G H P Y >.;.",
"*.*.C C A S S S D G L T ;.&.N M B qXqXqXqXC C C qXA A A S G L ;.%.C M M N M M N M m n M B qXA G L *.L G H H H H G G H K P T >.;.",
"*.*.C C S D D D D H P T ;.&.N M B qXqXqXqXC C qXA A A A S H L ;.%.M M M N M M M m m n M B qXA G L ;.T P L L L K K H K L P T >.;.",
"*.*.S A D F F F F H P T ;.*.B N C qXqXqXC C C qXA A A A S H P ;.%.M M N M M M N M m m M B qXA G L >.>.>.T Y I P L L L L I T >.;.",
"*.*.S A F G G G G L U R ;.&.B B B C qXC C C qXA A A A A S G L ;.&.M M M M M N M m m m M B qXA G L >.>.>.>.>.>.T Y Y P P U T >.;.",
"*.*.D S G H H H K P Y R ;.&.C B B C C C A qXqXA A A A S D G L ;.&.M n M M M M M m m M B B qXA G L >.>.;.;.>.>.>.>.>.T Y Y T >.;.",
"*.*.G D H K K L L U R >.;.&.S B C C C A A A A A A A S S F H L ;.*.B M M M M M M N N B B C A D H I ;.P H K K L I Y ;.>.>.R E >.;.",
"*.*.H G H L L P P Y R >.;.&.S C C C C A A A A S S S D F H K P ;.o G C C C B B C C C A A A D H P Y ;.G A A D G H L P T >.>.>.;.;.",
"*.*.K L L P I Y Y T >.;.;.*.D A A A A S D D F F G G G H K L I ;.;.o G D D D D F G G G G G H P Y ;.K A A A D F G H K P T >.;.;.;.",
"*.*.o ;.;.;.;.>.>.>.;.;.o *.K G H H K K L L L L L L L L L I ;.;.o o o L K L L L L L L L L I Y ;.;.D A A D G G G H H P T >.;.;.;.",
"&.&.&.&.&.&.&.*.o ;.;.o *.*.o ;.;.;.;.;.;.;.;.;.;.;.;.;.;.;.;.o *.*.*.o ;.;.;.;.;.;.;.;.;.;.;.;.L A A S G H H H K L U R >.;.;.;.",
"m m m m N B C qXA D H L I &.&.&.&.&.&.*.o o *.*.*.*.&.&.&.&.&.&.&.&.&.*.*.*.*.o ;.;.K H L ;.;.;.H A S G K L L L P U T >.R K S B ",
"n b n n n m m m M B B B B M N N B B C S K o *.N N N N N N N B C qXA A S D F G K ;.;.K G L ;.;.;.K H K P U U U U U T R >.U F qXN ",
"n b n m m m m m m m m m m m m m m M B A H ;.o G S D G G G G G G G G G G G G H P ;.;.I L U ;.;.;.Y Y T R R R R R R R ,.;.L S m N ",
"n b n n m m m m m M M M M M M M M M B A H ;.;.;.o o ;.;.;.;.;.;.;.;.;.;.;.;.;.;.;.o ;.;.;.;.o ;.;.>.>.>.>.>.>.>.>.>.;.R K qXn N ",
"n n n m m m m m M N N N N N B B N N B A K ;.;.o o o o ;.;.;.;.o o *.*.*.*.*.*.*.*.*.*.*.*.*.*.*.*.o o o o o ;.;.;.;.;.U F M n N ",
"M m m m m m m M N B B B B B B B B B B A K ;.o I K G H K K I ;.o I L K K K K H K K L L L L L L L L L L P P P I Y T ;.;.L S M m N ",
"N N M M M M N B B B B B B B B B B B B A K ;.*.K H H H H K P ;.o P L K K K K K K L L L L L L L L L P P P P P P U T >.o K qXm M M ",
"N N N N N N B B B B B B B B B B C C C A K ;.*.H K L L L L I >.o Y P P P P P P P P P P P P P P P P U U U U U U Y R >.;.F N M N N ",
"N N B B B B B B B B B B B B C C C C C A K ;.*.H K L L L L U >.o >.T T T T T T T T T T T T T T T T T T R R R R R >.;.o S B N N N ",
"N B B C C C C C C C C C C C A A A A A A K ;.*.H K L P P P U >.;.;.>.>.>.>.>.>.>.>.>.>.>.>.>.>.>.>.>.>.>.>.>.>.>.;.;.o qXB B B B ",
"C A A S S S S S S D D D D D D D D S S D K ;.*.H K P P P P I >.;.B n M M M M B B qXS P >.Y L L L L P P P P I T >.;.;.*.A C A A A ",
"K K K K K K K K K L L L L K K K K K K K I ;.*.H K P P P L I >.o b m C C C C C C A S K >.P K K K K L L L L P U T >.;.o H G K K K ",
";.;.;.;.;.;.;.;.;.;.;.;.;.;.;.;.;.;.;.;.;.o *.H K P P P L I >.*.b m qXA A A A A A S K >.Y I I I I I U U Y Y Y T >.;.o ;.>.>.>.>.",
"*.*.*.*.*.*.*.*.*.*.*.*.*.&.&.&.&.&.*.*.*.*.*.H K P P P L I >.*.b m C C C A A A A S K >.>.>.>.>.>.>.>.>.>.>.>.>.>.o o ;.;.;.;.;.",
"*.*.D C B N B B B B B B B B B B B B B B L *.*.H H L P P L I >.*.b m C C C C qXA A S K >.;.*.*.*.*.*.*.*.*.*.*.*.*.*.*.o ;.;.;.;.",
"*.D B N m n b v c c c c c c c c c v b M G o *.G H L L P P U >.*.b m C C qXqXqXqXA S K >.*.A M B B B B B C C C A S S S H P T ;.;.",
"*.C N m n b v c c c c c v b b b b n m N D ;.*.G H L L L L I >.&.b m B C qXqXqXqXA S K >.*.M M M N B B B C C A A A A A F L T ;.;.",
"*.B m n b v v b b b b b n n m m m m M B D ;.*.G H L L L L I >.&.b m B C qXqXqXqXA S K >.*.B N B B C A A A S S S S S D G L Y >.;.",
"*.N m n b b b b n m m m m m m M M N N C D ;.*.G H L L L L P >.&.b m B C qXqXqXqXA S K >.*.C B C A S S S D D D D D D D G L Y >.;.",
"*.N m m n n m m m m M M M M N N N N B C G ;.*.G H K K K K P >.&.b m B C qXqXqXqXA S K >.*.C C A S D D D D D D D D D D F K Y >.;.",
"*.N m n m m m M M N N B B B B B N M B A G ;.*.G G K K H H P >.&.b m C C qXqXqXC A S K >.*.C C S D D D D D D D S D D D F H I >.;.",
"*.B n n m m N B B B B B B B B N M M N A G ;.*.G G H H H G L >.&.b m C C C qXC C A S K >.*.C C A D D S S S S S S S S S D H I >.;.",
"*.B n n m M N B B B B B B B N N M M B A G ;.*.D F H H G F L >.&.b m C C C C C C A A H >.*.S C A S S S S S S S S S S S S G P >.;.",
"*.B n m M N B B B B B N B B N N N N B A G ;.*.D F G G F F L >.&.b m B C C C C C C A G >.*.S qXA S S S S S A A A A A A S G L >.;.",
"*.B m N B B B B B B B B B B B B B B B A H ;.*.G F G G F G L >.&.b m C C C C C C B C G >.*.S C A A S S S A A A A A A A S F L >.;.",
"*.C B B C C C C C C C C C C C B B C A S K ;.*.K K K K K K I ;.&.b m C C C C C C C C G >.*.S A A A S S S S S S S S A A S G L >.;.",
"*.G A A A A A A A A A A A A A A C A S D K ;.*.o ;.>.>.>.>.;.;.&.n M C C B B B B C A G ;.o H D D F F F F F F F F F F F G H P >.;.",
"*.;.K H H H H H H H H H H H H H H H K K P ;.*.&.%.%.%.%.&.&.&.&.m M C B B N N B C A H ;.;.I L K L L L L L L L L L L L L P Y >.;.",
"o o ;.;.;.;.;.;.;.;.;.;.;.;.;.;.;.;.;.;.;.;.*.&.qXm m m qXL &.&.n m B B N N N B C S K ;.;.;.;.;.>.>.>.>.>.>.>.>.>.>.>.>.>.>.>.;.",
"&.&.&.%.%.%.%.%.&.&.*.*.%.%.#.#.#.%.&.&.*.o *.&.B n m m N H *.&.b m M M M N B B A D L o o *.&.*.*.*.*.*.*.*.*.*.*.*.*.*.*.*.*.*.",
"B B B B B B B B F L *.L B b M M M M M qXG K ;.*.M m N B A K o &.b b m m M B C A D H I ;.o &.qXB M M M M M M M M M M M M M M M M ",
"B B M m n n m B A F *.H b m N N N N N qXD P ;.&.N N C qXS L ;.*.b b m M B C A D H I ;.o &.S qXB M M M M M N B B B B B B B B B B ",
"S A A B B B B C A G o F M M B C C C C A H U ;.&.C B A A D L ;.*.b n B B A A D H P ;.o &.F A C B C C C C C A A A A A A A A A A A ",
"D D S A A A A S F L o S N N C A A A A D K Y ;.*.qXB A S F L ;.*.b m C A S G K P ;.o &.F S qXC qXA A A S S S D D D D D D S S D D ",
"H G G F D D F F H L o A B C A S S S F H L T ;.o G S S D G P >.o B A S F H L I ;.;.*.G D A A A S S D D F G G G G G G G G G G G G ",
"P P L L L L L L L I *.C B A F G G H K P U ;.;.;.;.L H H K U >.o L H K L P U ;.o o K H K K K K K K K L L L P P P P P P P P P P P ",
"Y T T Y Y Y Y Y Y ;.*.A A F H K K L P Y ;.;.;.;.;.>.U P P T >.;.;.;.;.;.;.;.;.;.o I U Y Y Y Y Y Y Y Y Y T T T T T T T T T T T T ",
";.>.;.;.;.;.;.;.;.;.*.G G K P P I Y T ;.*.G A D K ;.>.T Y ;.o *.*.*.*.*.*.*.*.o ;.;.;.>.>.>.>.>.>.>.>.>.>.>.>.>.>.>.>.>.>.>.>.;.",
";.;.*.&.*.&.&.*.*.&.*.*.*.o ;.;.;.;.;.;.*.B B A S K ;.;.;.*.A C M M B C A S D F H L P U T *.*.*.*.*.*.*.*.*.*.*.*.o o o ;.;.;.;.",
";.*.A N N N M N N M M M M N N N N M A o &.N N C A F P ;.o A B M b b b m m m M N N N N N N N N N N N N N N N N N N N B B N A L ;.",
";.&.N m m m M N N N N N B B B B A S H ;.*.N B A S F L >.;.B m m M M M N N N N N B B B B N N B B B B B B B B B B B B B B C S P >.",
";.*.N N B B B C C A A A A A A A F L Y ;.*.B B A D G L >.;.N N B C C C A A A A A A A A A A A A A A A A A A A A A A A A A D H I >.",
";.*.C B C A A A A S S S S D D F H P R ;.*.B B S G H P >.;.C C A A A A S S S S S S S S S S S S S S S S S S S S S S D D F G L U >.",
";.*.S A A S D D D D D F G G H H L U R ;.*.B C F H L I >.;.D A A S D D D D D D D D D D D D F G G G G G G G G G G G G H H K P Y >.",
";.*.G F H H K K K K K L L L P P P Y R ;.*.S S K L P Y >.;.H A S F G H H K K K K K L K K K L L L L L L L L L L L L L P P P Y R >.",
";.*.o Y T T T T T R R R R R R R R >.>.;.*.%.P T T R ;.>.;.U P L P I U Y T T T T T T T R R R R R R R R R R R R R R R R R R E W >."
};
